<svg width="207" height="24" viewBox="0 0 207 24" fill="none" xmlns="http://www.w3.org/2000/svg">
<path d="M0.56 0.599998H15.92V3H3.12V10.52H14.96V12.92H3.12V20.6H15.92V23H0.56V0.599998ZM35.0115 0.599998H37.9875L29.3795 11.8L37.9875 23H35.0115L27.9075 13.752L20.8035 23H17.8275L26.4035 11.8L17.8275 0.599998H20.8035L27.9075 9.848L35.0115 0.599998ZM59.3225 14.36H61.9785C61.4665 17.1333 60.1972 19.32 58.1705 20.92C56.1438 22.52 53.5945 23.32 50.5225 23.32C46.9812 23.32 44.1545 22.2747 42.0425 20.184C39.9092 18.072 38.8425 15.2773 38.8425 11.8C38.8425 8.30133 39.9092 5.50667 42.0425 3.416C44.1545 1.32533 46.9812 0.279999 50.5225 0.279999C53.5945 0.279999 56.1438 1.08 58.1705 2.68C60.1972 4.28 61.4665 6.46667 61.9785 9.24H59.3225C58.8318 7.21333 57.8185 5.61333 56.2825 4.44C54.7252 3.26667 52.8052 2.68 50.5225 2.68C47.7492 2.68 45.5412 3.512 43.8985 5.176C42.2345 6.84 41.4025 9.048 41.4025 11.8C41.4025 14.552 42.2345 16.76 43.8985 18.424C45.5412 20.088 47.7492 20.92 50.5225 20.92C52.8052 20.92 54.7252 20.3333 56.2825 19.16C57.8185 17.9867 58.8318 16.3867 59.3225 14.36ZM65.7163 0.599998H68.2763V20.6H80.4363V23H65.7163V0.599998ZM98.1588 0.599998H100.719V23H98.1588V17.688C97.2841 21.4427 94.8308 23.32 90.7988 23.32C88.3241 23.32 86.3721 22.584 84.9427 21.112C83.5134 19.64 82.7988 17.6027 82.7988 15V0.599998H85.3588V15C85.3588 16.8773 85.9454 18.3387 87.1188 19.384C88.2494 20.408 89.7961 20.92 91.7588 20.92C93.7214 20.92 95.2681 20.408 96.3988 19.384C97.5721 18.3173 98.1588 16.856 98.1588 15V0.599998ZM114.001 10.68C115.495 10.68 116.7 10.328 117.617 9.624C118.513 8.94133 118.961 8.01333 118.961 6.84C118.961 4.06667 117.095 2.68 113.361 2.68C111.569 2.68 110.183 3.032 109.201 3.736C108.241 4.39733 107.761 5.32533 107.761 6.52C107.761 7.69333 108.241 8.57867 109.201 9.176C110.076 9.752 111.463 10.1467 113.361 10.36C116.327 10.7013 118.513 11.3627 119.921 12.344C121.415 13.3893 122.161 14.8827 122.161 16.824C122.161 18.8293 121.404 20.408 119.889 21.56C118.332 22.7333 116.156 23.32 113.361 23.32C110.524 23.32 108.348 22.7013 106.833 21.464C105.319 20.248 104.561 18.488 104.561 16.184H107.121C107.121 19.3413 109.201 20.92 113.361 20.92C115.388 20.92 116.945 20.5467 118.033 19.8C119.079 19.096 119.601 18.104 119.601 16.824C119.601 15.608 119.079 14.6693 118.033 14.008C117.073 13.432 115.516 13.016 113.361 12.76C110.631 12.44 108.615 11.8107 107.313 10.872C105.905 9.848 105.201 8.39733 105.201 6.52C105.201 4.6 105.916 3.08533 107.345 1.976C108.796 0.845332 110.801 0.279999 113.361 0.279999C115.921 0.279999 117.927 0.802666 119.377 1.848C120.807 2.872 121.521 4.26933 121.521 6.04C121.521 7.64 120.839 8.87733 119.473 9.752C118.151 10.584 116.327 11 114.001 11V10.68ZM125.841 23V0.599998H128.401V23H125.841ZM149.209 0.599998H151.929L141.689 23.64L131.449 0.599998H134.169L141.689 17.528L149.209 0.599998ZM154.966 23V0.599998H157.526V23H154.966ZM182.174 11.96H184.734C184.734 15.3947 183.688 18.1467 181.598 20.216C179.507 22.2853 176.712 23.32 173.214 23.32C169.715 23.32 166.92 22.36 164.83 20.44C162.739 18.5413 161.694 15.9813 161.694 12.76C161.694 10.1147 162.44 7.93867 163.934 6.232C165.384 4.568 167.422 3.49067 170.046 3H161.054V0.599998H183.454V3H173.214C170.504 3 168.328 3.81067 166.686 5.432C165.064 7.07467 164.254 9.25067 164.254 11.96C164.254 14.6693 165.064 16.8347 166.686 18.456C168.328 20.0987 170.504 20.92 173.214 20.92C175.923 20.92 178.088 20.0987 179.71 18.456C181.352 16.8347 182.174 14.6693 182.174 11.96ZM203.672 0.599998H206.488L197.528 15.096V23H194.968V15.096L186.008 0.599998H188.824L196.248 12.6L203.672 0.599998Z" fill="#161616"/>
</svg>
